<svg xmlns="http://www.w3.org/2000/svg" viewBox="0 0 120 100" fill="none" stroke="#111111" stroke-width="3" stroke-linecap="round" stroke-linejoin="round">
  <!-- clipboard -->
  <rect x="22" y="14" width="50" height="66" rx="6" fill="#FFFFFF"/>
  <rect x="35" y="8" width="24" height="12" rx="4" fill="#FFD43B"/>
  <path d="M32 34 H 62 M32 46 H 62 M32 58 H 50" stroke-width="2.6"/>
  <!-- briefcase -->
  <path d="M68 58 V 52 C 68 49 70 47 73 47 H 85 C 88 47 90 49 90 52 V 58"/>
  <rect x="58" y="58" width="42" height="30" rx="5" fill="#FFD43B"/>
  <path d="M58 70 H 100" stroke-width="2.6"/>
  <!-- sparkles -->
  <path d="M10 60 Q10 67 17 67 Q10 67 10 74 Q10 67 3 67 Q10 67 10 60 Z" fill="#111111" stroke-width="2"/>
  <path d="M100 14 Q100 23 109 23 Q100 23 100 32 Q100 23 91 23 Q100 23 100 14 Z" fill="#111111" stroke-width="2"/>
</svg>
